PathFileType	4	(X/Y/Z)	36_1_rein_35_p1_0-354_filt_butterworth.trc
DataRate	CameraRate	NumFrames	NumMarkers	Units	OrigDataRate	OrigDataStartFrame	OrigNumFrames
57.0	57.0	5	27	m	57.0	0	354
Frame#	Time	RHip			RKnee			RAnkle			RBigToe			RSmallToe			RHeel			LHip			LKnee			LAnkle			LBigToe			LSmallToe			LHeel			Neck			Head			Nose			RShoulder			RElbow			RWrist			RThumb			RIndex			RPinky			LShoulder			LElbow			LWrist			LThumb			LIndex			LPinky			
		X1	Y1	Z1	X2	Y2	Z2	X3	Y3	Z3	X4	Y4	Z4	X5	Y5	Z5	X6	Y6	Z6	X7	Y7	Z7	X8	Y8	Z8	X9	Y9	Z9	X10	Y10	Z10	X11	Y11	Z11	X12	Y12	Z12	X13	Y13	Z13	X14	Y14	Z14	X15	Y15	Z15	X16	Y16	Z16	X17	Y17	Z17	X18	Y18	Z18	X19	Y19	Z19	X20	Y20	Z20	X21	Y21	Z21	X22	Y22	Z22	X23	Y23	Z23	X24	Y24	Z24	X25	Y25	Z25	X26	Y26	Z26	X27	Y27	Z27	
0	0.0	0.31853671300074465	0.9152180203123912	0.6759472802187941	0.3516783733267209	0.4749256203769284	0.7208193926441866	0.37464816592284084	0.010240095667499116	0.7712160507123971	0.32920648750062037	0.009539506673220101	0.5183591038774675	0.3944586825893297	-0.004648186564325252	0.5676156496426958	0.34989539558869603	-0.05042087734663475	0.8405828364326097	0.10530198424321806	0.8800232694091117	0.6757081449088643	0.14028770039807192	0.4396270858944049	0.7104821612924579	0.17469125813767666	0.023342467943955475	0.7297092590671348	0.18800520759793424	0.004221673170164968	0.5356161333433805	0.13578279118486522	-0.017595840573320948	0.5791600444824946	0.19401996947321057	-0.048316385294091255	0.7922357196858563	0.1651576625992916	1.52607642707138	0.6410489811138846	0.15004896147606794	1.7921707392126014	0.5779421155924008	0.14896646669441874	1.6448267700069261	0.5203642956288933	0.34171373282956635	1.4443981772797254	0.6912249596688328	0.40926694615546383	1.173888461703542	0.6167138584881068	0.2735788493540025	0.950982453640661	0.5053142841663184	0.1664505995858424	0.8832779715320865	0.5112259753292281	0.16996569547883653	0.8295403725163567	0.4979970238409204	0.2035722434762111	0.8193087240946141	0.49982795530266305	0.004041694863080559	1.4441422677684972	0.6604304654588256	0.009280312952409267	1.1522759574752648	0.592108578408735	0.15432269018569486	0.9336348369409037	0.523339202977701	0.21438530036779654	0.870527725500111	0.49321171951616255	0.20915639245648604	0.8310336192485722	0.4770220919716954	0.21052120704701682	0.8219477008670244	0.5052773454082664	
1	0.0175438596491228	0.31893647117892987	0.9146018580518317	0.6744861526013068	0.35168384901234195	0.47245374165727094	0.7206555967077759	0.37452543528648513	0.010259940371343146	0.7712405177496823	0.3293705137256467	0.010964955763462472	0.5202149201540394	0.3980357010573939	-0.005312424241880304	0.5707411898373362	0.3510925171929672	-0.05260124333101694	0.8413263482711123	0.10439311587562443	0.8794421975769928	0.6743369573567027	0.1403218366440323	0.4386452436235178	0.710486355861528	0.17431095136783428	0.02342770967861174	0.7317430344587789	0.190406025249463	0.004648109077936967	0.5355508805745888	0.1358599168488227	-0.017480167357197818	0.5791556677633651	0.19419934699095692	-0.047162485433276474	0.7921227129666989	0.1661959951437882	1.5262221805032483	0.6385324677372616	0.14811830115565283	1.7934732190947482	0.5711880555635989	0.14905282375095924	1.6422382807857787	0.5200180436662925	0.3394785611735704	1.4460039816532881	0.690629167419322	0.4093668787931772	1.173634382367101	0.6168958274316759	0.27499482172481055	0.9519597534338337	0.5054502814900541	0.1705392322670199	0.8835871550051297	0.505658823391709	0.17293472219108424	0.8307898235926636	0.5037193298140971	0.20676869704227324	0.819068690060565	0.5007583224406981	0.004248989884074881	1.4426521937942318	0.660735591925069	0.009077812846389647	1.1539998728927812	0.5923275731972948	0.1544398564381873	0.9341214916967698	0.5256700304434979	0.21806834204219205	0.869668160263846	0.4915917794064532	0.21343677834657157	0.8300457143404427	0.4844472016559889	0.21224101244968072	0.8224839989926352	0.5047447731758797	
2	0.0350877192982456	0.31922221850010124	0.9141344771283684	0.673366351178495	0.3516821536166885	0.47038813991752104	0.7205320722502355	0.3745142065196543	0.010270505274960845	0.7713030945432344	0.3294706529457867	0.01194414906826223	0.5214949562093539	0.40055050703951545	-0.005125020501108871	0.5717796546474173	0.3521064784083627	-0.054444140920786976	0.8419635058221822	0.10355405916778901	0.8788516162829662	0.6732587553667011	0.14034202620564173	0.437786171695535	0.7104870191352785	0.17402213961792012	0.023501384546615392	0.7332794480752995	0.19230817054738303	0.004079435310875443	0.5370210858697908	0.13590713860383258	-0.01743033986485778	0.5791723949354459	0.1943308607892121	-0.04635259564933753	0.7920645501433871	0.16642399585964976	1.5262051366146496	0.6376137581060757	0.1472233341229725	1.7943686914953518	0.5681602090260762	0.149120944801452	1.6403181719043805	0.5197556818271124	0.33804078229497536	1.447019092574065	0.6902358299786212	0.40943594439853664	1.173494646006692	0.6170047966312746	0.276328167303094	0.9530235733182741	0.505657167139205	0.174498982600886	0.8825982197532966	0.5023281288537678	0.17604614913792846	0.8310717107617634	0.5078110318154124	0.209504516648003	0.8187714035595741	0.5023188098449727	0.004386705154274012	1.4416204928601473	0.6609299910598727	0.009042673758960732	1.1551266743077526	0.5924955738327228	0.1549153666664434	0.9346467373841015	0.5280108880384248	0.22126814259936134	0.8693819574336688	0.49138856340752385	0.2171427626696799	0.8293697872307659	0.4906508901809093	0.21371192446798692	0.8224305108452906	0.5056620773781645	
3	0.0526315789473684	0.319406438590832	0.9138050256016853	0.6725510549400077	0.3516740216858253	0.46869805011337	0.720445251938831	0.37460275203831045	0.01027280750776785	0.7713989864226374	0.32952036208724855	0.012555452100693677	0.5222973389062381	0.40217749665636116	-0.004321867186870547	0.5712480557131009	0.35295073749310124	-0.055974540188966804	0.8425015944204319	0.1027856103074387	0.8782605026393441	0.6724426167737136	0.14034965745821118	0.4370421579864968	0.7104846630725691	0.17381748993648838	0.023565262946998594	0.7343619358197373	0.19371717627512655	0.002800540249999088	0.5395524318369154	0.13592925879373244	-0.017430051289266578	0.5792048589863713	0.19441888370288404	-0.04585454529240853	0.7920556362661132	0.16605645119458515	1.5260718116651655	0.6379064355806838	0.14713052039102192	1.79493271665554	0.5680124326577238	0.14917027787298384	1.6390008030967647	0.5195719182449171	0.33725092967733383	1.4475572802551193	0.690010260594635	0.40947754851948714	1.1734793671701358	0.6170616869008755	0.27755847494519337	0.9540957905441113	0.5059143285384139	0.17820535996713227	0.8806798011192983	0.5007817205299251	0.17916795034893399	0.8306254263183153	0.5105289135629282	0.21184919377774483	0.8183922303386263	0.504430160639936	0.004467327104646775	1.4409700605568447	0.6610359729032484	0.009127712457622965	1.155767965624526	0.5926130030368694	0.15560026308915392	0.935166533129644	0.5303537158044219	0.22396678178773397	0.8696128350618821	0.4922317303015483	0.22031791953894816	0.8289529165163921	0.49572278098551453	0.2149567423129663	0.8219293007345068	0.5076640767244329	
4	0.0701754385964912	0.31950161507769553	0.9136026515314665	0.6720034428754933	0.3516601877658172	0.4673527072005088	0.7203915684408283	0.37477934425841586	0.01026786419917984	0.7715233987174752	0.3295330980762405	0.012877230373831566	0.522720195107518	0.4030910660285977	-0.0031388561440250165	0.5696634046745482	0.3536387527054016	-0.05721741120857869	0.8429478994004742	0.1020885654823004	0.8776778337584398	0.6718576194125951	0.14034611877705164	0.436405490372444	0.7104797996322593	0.1736896693720934	0.023621115278793334	0.7350339335951327	0.19463857521612588	0.0010963122763265748	0.5426706010838921	0.13593107976235985	-0.01746299482339015	0.5792476929037761	0.19446778856688057	-0.04563616371262372	0.7920903763850695	0.1653081475963032	1.5258687219143765	0.6390240835214436	0.14760631997279597	1.7952408548164396	0.5698985831364327	0.14920027099264171	1.6382205340969627	0.5194614610532706	0.33695953680419843	1.447732314909515	0.6899177725152676	0.4094950967039737	1.173598660405254	0.6170874190544515	0.2786653335074491	0.9550982823614738	0.5062011531123233	0.18153387374545024	0.8782005344458469	0.5005674272347015	0.1821680998536657	0.8296903625569781	0.5121297587747057	0.21387221991584335	0.8179065361447063	0.5070131179500373	0.004503342166161993	1.440623792474926	0.6610758474952081	0.009285745709876787	1.1560353507474483	0.5926802835315853	0.15634558792500974	0.9356368380601426	0.5326904537834296	0.2261463393557394	0.8703045112007889	0.49375093887070043	0.22300582306751338	0.8287421807941715	0.49975249750886297	0.21599826519564969	0.8211224329698005	0.5103855899239967	
